<svg width="151" height="70" viewBox="0 0 151 70" fill="none" xmlns="http://www.w3.org/2000/svg">
<circle cx="6" cy="5" r="5" fill="#7F5AF0"/>
<circle cx="26" cy="5" r="5" fill="#7F5AF0"/>
<circle cx="46" cy="5" r="5" fill="#7F5AF0"/>
<circle cx="66" cy="5" r="5" fill="#7F5AF0"/>
<circle cx="86" cy="5" r="5" fill="#7F5AF0"/>
<circle cx="106" cy="5" r="5" fill="#7F5AF0"/>
<circle cx="126" cy="5" r="5" fill="#7F5AF0"/>
<circle cx="146" cy="5" r="5" fill="#7F5AF0"/>
<circle cx="6" cy="25" r="5" fill="#7F5AF0"/>
<circle cx="26" cy="25" r="5" fill="#7F5AF0"/>
<circle cx="46" cy="25" r="5" fill="#7F5AF0"/>
<circle cx="66" cy="25" r="5" fill="#7F5AF0"/>
<circle cx="86" cy="25" r="5" fill="#7F5AF0"/>
<circle cx="106" cy="25" r="5" fill="#7F5AF0"/>
<circle cx="126" cy="25" r="5" fill="#7F5AF0"/>
<circle cx="146" cy="25" r="5" fill="#7F5AF0"/>
<circle cx="6" cy="45" r="5" fill="#7F5AF0"/>
<circle cx="26" cy="45" r="5" fill="#7F5AF0"/>
<circle cx="46" cy="45" r="5" fill="#7F5AF0"/>
<circle cx="66" cy="45" r="5" fill="#7F5AF0"/>
<circle cx="86" cy="45" r="5" fill="#7F5AF0"/>
<circle cx="106" cy="45" r="5" fill="#7F5AF0"/>
<circle cx="126" cy="45" r="5" fill="#7F5AF0"/>
<circle cx="146" cy="45" r="5" fill="#7F5AF0"/>
<circle cx="5" cy="65" r="5" fill="#7F5AF0"/>
<circle cx="25" cy="65" r="5" fill="#7F5AF0"/>
<circle cx="45" cy="65" r="5" fill="#7F5AF0"/>
<circle cx="65" cy="65" r="5" fill="#7F5AF0"/>
<circle cx="85" cy="65" r="5" fill="#7F5AF0"/>
<circle cx="105" cy="65" r="5" fill="#7F5AF0"/>
<circle cx="125" cy="65" r="5" fill="#7F5AF0"/>
<circle cx="145" cy="65" r="5" fill="#7F5AF0"/>
</svg>
